<svg width="26" height="29" viewBox="0 0 26 29" fill="none" xmlns="http://www.w3.org/2000/svg">
<path d="M13 26.0969C7.4875 26.0969 3 21.008 3 14.7567C3 8.50547 7.4875 3.41658 13 3.41658C18.5125 3.41658 23 8.50547 23 14.7567C23 21.008 18.5125 26.0969 13 26.0969ZM13 0.581543C11.3585 0.581543 9.73303 0.948195 8.21646 1.66056C6.69989 2.37293 5.3219 3.41707 4.16117 4.73336C1.81696 7.39172 0.5 10.9972 0.5 14.7567C0.5 18.5162 1.81696 22.1217 4.16117 24.7801C5.3219 26.0964 6.69989 27.1405 8.21646 27.8529C9.73303 28.5652 11.3585 28.9319 13 28.9319C16.3152 28.9319 19.4946 27.4384 21.8388 24.7801C24.183 22.1217 25.5 18.5162 25.5 14.7567C25.5 12.8952 25.1767 11.0519 24.5485 9.33211C23.9203 7.6123 22.9996 6.04964 21.8388 4.73336C20.6781 3.41707 19.3001 2.37293 17.7835 1.66056C16.267 0.948195 14.6415 0.581543 13 0.581543ZM14.25 7.66913H11.75V13.3392H6.75V16.1742H11.75V21.8443H14.25V16.1742H19.25V13.3392H14.25V7.66913Z" fill="white"/>
</svg>
