<svg width="20" height="20" viewBox="0 0 20 20" fill="none" xmlns="http://www.w3.org/2000/svg">
<g clip-path="url(#clip0_1_158)">
<path d="M12.6663 0C12.4823 0 12.333 0.149336 12.333 0.33332C12.333 0.517304 12.4823 0.666639 12.6663 0.666639C16.3423 0.666639 19.333 3.6573 19.333 7.33331C19.333 7.51729 19.4823 7.66663 19.6663 7.66663C19.8506 7.66663 19.9996 7.51729 19.9996 7.33331C19.9996 3.28968 16.71 0 12.6663 0Z" fill="#ADBC00"/>
<path d="M12.6663 2C12.4823 2 12.333 2.14934 12.333 2.33332C12.333 2.5173 12.4823 2.66664 12.6663 2.66664C15.2396 2.66664 17.333 4.75996 17.333 7.33331C17.333 7.51729 17.4823 7.66663 17.6663 7.66663C17.8507 7.66663 17.9996 7.51729 17.9996 7.33331C17.9996 4.39269 15.6073 2 12.6663 2Z" fill="#ADBC00"/>
<path d="M12.6663 4C12.4823 4 12.333 4.14934 12.333 4.33332C12.333 4.5173 12.4823 4.66664 12.6663 4.66664C14.1367 4.66664 15.333 5.86296 15.333 7.33331C15.333 7.5173 15.4823 7.66663 15.6663 7.66663C15.8507 7.66663 15.9996 7.5173 15.9996 7.33331C15.9996 5.49535 14.5043 4 12.6663 4Z" fill="#ADBC00"/>
<path d="M18.0381 12.5084C17.1311 12.389 16.2368 12.1664 15.3801 11.8473C14.5504 11.5363 13.6077 11.737 12.9764 12.36L11.9227 13.4113C9.71342 12.1087 7.86776 10.2667 6.5621 8.06168L7.61643 7.00969C8.23975 6.38071 8.44108 5.43903 8.12944 4.61138C7.80979 3.75606 7.58678 2.86372 7.46678 1.95536C7.30709 0.829351 6.3321 -0.00431909 5.19245 1.68354e-05H2.27613C2.20812 1.68354e-05 2.14011 0.00333714 2.07281 0.00935276C1.46711 0.0640402 0.918786 0.351032 0.529099 0.817047C0.139451 1.28337 -0.0452359 1.87337 0.0101155 2.48368C0.333123 5.51969 1.38312 8.47867 3.0448 11.0387C4.55347 13.408 6.60581 15.4563 8.97744 16.9603C11.5328 18.6143 14.4838 19.662 17.5181 19.991C17.5868 19.997 17.6557 20 17.7251 20C17.7271 20 17.7291 20 17.7314 20C18.9874 19.9946 20.0047 18.9706 19.9997 17.7183V14.812C20.0261 13.6597 19.1847 12.6697 18.0381 12.5084ZM19.3331 14.8C19.3331 14.8026 19.3331 14.8057 19.3331 14.8083V17.72C19.3364 18.606 18.6168 19.33 17.7291 19.3337C17.6771 19.3317 17.6271 19.3317 17.5831 19.3276C14.6584 19.0103 11.8077 17.9983 9.33678 16.399C7.04479 14.9453 5.06347 12.968 3.60546 10.678C1.9991 8.20336 0.985114 5.34536 0.673435 2.41837C0.634763 1.99103 0.765114 1.57439 1.04078 1.2447C1.31644 0.915015 1.7041 0.712047 2.13277 0.673375C2.18042 0.669039 2.22812 0.666695 2.27609 0.666695H5.19542C5.20077 0.666695 5.20608 0.666695 5.21143 0.666695C6.0101 0.666695 6.69444 1.25837 6.80608 2.04568C6.93241 3.00068 7.16741 3.94267 7.50506 4.84567C7.72541 5.43098 7.58307 6.09633 7.14405 6.53934L5.9094 7.77133C5.80272 7.87766 5.78073 8.04168 5.85507 8.17235C7.26772 10.6523 9.32807 12.7084 11.8124 14.118C11.9431 14.1923 12.1064 14.1697 12.2124 14.064L13.4457 12.8334C13.8914 12.3937 14.559 12.252 15.1464 12.472C16.0504 12.8087 16.994 13.0437 17.9477 13.169C18.7577 13.283 19.3534 13.984 19.3331 14.8Z" fill="#ADBC00"/>
<path d="M5.00016 1.3335H2.27583C2.24782 1.3335 2.22017 1.33482 2.19251 1.33748C1.85286 1.36814 1.64517 1.5608 1.55185 1.67248C1.47685 1.76213 1.30552 2.00682 1.33552 2.34283C1.46153 3.52517 1.6895 4.67548 2.01384 5.76216C2.05716 5.90649 2.1895 6.00017 2.33317 6.00017C2.36485 6.00017 2.39684 5.99583 2.42884 5.98618C2.60516 5.93353 2.70552 5.74786 2.65282 5.57153C2.34016 4.52419 2.12017 3.4142 1.99915 2.27787C1.99149 2.19322 2.04649 2.12021 2.06349 2.09955C2.09083 2.06689 2.15181 2.01057 2.27583 2.00021H4.9995C4.99985 2.00021 4.99985 2.00021 4.99985 2.00021C5.18383 2.00021 5.33317 1.85123 5.33317 1.66721C5.33348 1.48314 5.18414 1.3335 5.00016 1.3335Z" fill="#ADBC00"/>
<path d="M18.3329 14.6667C18.1489 14.6667 17.9996 14.8161 17.9996 15.0001L17.9992 17.7197C17.9996 17.7947 17.9709 17.8654 17.9186 17.918C17.8662 17.9707 17.7969 17.9997 17.7309 18L17.7002 17.9994C16.5613 17.8757 15.4606 17.6563 14.4289 17.3474C14.2533 17.2944 14.0669 17.3947 14.0139 17.571C13.9609 17.7474 14.0613 17.933 14.2376 17.986C15.3079 18.3067 16.4489 18.534 17.6343 18.6627C17.6616 18.6654 17.7173 18.6667 17.7253 18.6667C17.9776 18.6657 18.2143 18.5667 18.392 18.3877C18.5696 18.2084 18.667 17.9704 18.6659 17.7184L18.6663 15.0001C18.6663 14.8161 18.5169 14.6667 18.3329 14.6667Z" fill="#ADBC00"/>
</g>
<defs>
<clipPath id="clip0_1_158">
<rect width="20" height="20" fill="white"/>
</clipPath>
</defs>
</svg>
